<svg xmlns="http://www.w3.org/2000/svg" viewBox="0 0 760 560" role="img" aria-labelledby="title desc">
  <title id="title">SaaS landing page mockup</title>
  <desc id="desc">A stylized website interface for a startup launch landing page.</desc>
  <rect width="760" height="560" rx="34" fill="#fffaf0"/>
  <rect x="34" y="34" width="692" height="492" rx="28" fill="#10231c"/>
  <rect x="58" y="58" width="644" height="444" rx="22" fill="#f8edcf"/>
  <circle cx="90" cy="88" r="9" fill="#10231c"/>
  <circle cx="120" cy="88" r="9" fill="#c9703c"/>
  <circle cx="150" cy="88" r="9" fill="#d6ff69"/>
  <rect x="90" y="132" width="245" height="22" rx="11" fill="#c9703c"/>
  <rect x="90" y="172" width="362" height="54" rx="14" fill="#10231c"/>
  <rect x="90" y="246" width="278" height="18" rx="9" fill="#31473f" opacity=".55"/>
  <rect x="90" y="278" width="225" height="18" rx="9" fill="#31473f" opacity=".35"/>
  <rect x="90" y="332" width="150" height="48" rx="24" fill="#d6ff69" stroke="#10231c" stroke-width="5"/>
  <rect x="282" y="332" width="118" height="48" rx="24" fill="#fffaf0" stroke="#10231c" stroke-width="5"/>
  <g transform="translate(470 124)">
    <rect width="158" height="232" rx="26" fill="#10231c"/>
    <rect x="18" y="24" width="122" height="184" rx="18" fill="#d6ff69"/>
    <path d="M40 132c22-38 51-44 86-28v56H40v-28Z" fill="#c9703c"/>
    <circle cx="80" cy="76" r="34" fill="#fffaf0"/>
  </g>
  <rect x="90" y="420" width="130" height="46" rx="16" fill="#e7d7b5"/>
  <rect x="242" y="420" width="130" height="46" rx="16" fill="#e7d7b5"/>
  <rect x="394" y="420" width="130" height="46" rx="16" fill="#e7d7b5"/>
</svg>
